# xmcd
#
# Track frame offsets: 
#        150
#        16883
#        33120
#        50118
#        74785
#        92745
#        115843
#        129268
#        142688
#        165219
#        181565
#        198193
#        215068
#        228785
#
# Disc length: 3265 seconds
#
# Revision: 0
# Processed by: cddbd v1.5.2PL0 Copyright (c) Steve Scherf et al.
# Submitted via: ExactAudioCopy v0.99pb5
#
DISCID=af0cbf0e
DTITLE=Eddie Martin - Blues Took Me By The Hand
DYEAR=2014
DGENRE=Blues
TTITLE0=Blues Took My By The Hand
TTITLE1=Flowers To The Desert
TTITLE2=Keep On Working
TTITLE3=The Devil's Joker
TTITLE4=Gone Away To Canada (remix)
TTITLE5=Month Of Mondays (ac version)
TTITLE6=One Man Band Rag
TTITLE7=It's A Mistery To Me
TTITLE8=Kind Lady Moon (remix)
TTITLE9=Funny Bone Blues
TTITLE10=Too Many Red Lights
TTITLE11=Key To The Highway
TTITLE12=Yo Yo Blues
TTITLE13=Lazy Monday
EXTD=
EXTT0=
EXTT1=
EXTT2=
EXTT3=
EXTT4=
EXTT5=
EXTT6=
EXTT7=
EXTT8=
EXTT9=
EXTT10=
EXTT11=
EXTT12=
EXTT13=
PLAYORDER=
